<svg width="67" height="67" viewBox="0 0 67 67" fill="none" xmlns="http://www.w3.org/2000/svg">
<g id="streamline:health-care-2-solid" clip-path="url(#clip0_3_10)">
<path id="Vector" fill-rule="evenodd" clip-rule="evenodd" d="M22.1039 11.9012C22.1039 9.00456 23.2546 6.22654 25.3029 4.17829C27.3511 2.13004 30.1292 0.97934 33.0258 0.97934C35.9225 0.97934 38.7005 2.13004 40.7488 4.17829C42.797 6.22654 43.9477 9.00456 43.9477 11.9012C43.9477 14.7979 42.797 17.5759 40.7488 19.6242C38.7005 21.6724 35.9225 22.8231 33.0258 22.8231C30.1292 22.8231 27.3511 21.6724 25.3029 19.6242C23.2546 17.5759 22.1039 14.7979 22.1039 11.9012ZM11.5406 29.7914C13.7639 27.6808 16.7125 26.5042 19.778 26.5042C22.8436 26.5042 25.7922 27.6808 28.0154 29.7914L28.0626 29.8386L33.0258 34.8018L37.9938 29.8386L38.0409 29.7914C40.2637 27.6836 43.2103 26.5086 46.2736 26.5086C49.3369 26.5086 52.2835 27.6836 54.5063 29.7914C55.6104 30.8385 56.49 32.0993 57.0915 33.4971C57.6929 34.8948 58.0038 36.4003 58.0051 37.922C58.0064 39.4437 57.6982 40.9497 57.0992 42.3485C56.5001 43.7473 55.6228 45.0096 54.5205 46.0587L34.6677 65.3548C34.2273 65.7828 33.6375 66.0222 33.0235 66.0222C32.4094 66.0222 31.8196 65.7828 31.3793 65.3548L11.5312 46.0587C10.4293 45.01 9.55226 43.7482 8.95324 42.35C8.35422 40.9519 8.04578 39.4465 8.04666 37.9254C8.04755 36.4043 8.35773 34.8992 8.95837 33.5018C9.55902 32.1043 10.4376 30.8388 11.5406 29.7914Z" fill="white"/>
</g>
<defs>
<clipPath id="clip0_3_10">
<rect width="66.0503" height="66.0503" fill="white" transform="translate(0 0.474854)"/>
</clipPath>
</defs>
</svg>
